<?xml version="1.0" encoding="UTF-8" standalone="no"?>
<svg
   version="1.1"
   width="9.5227in"
   height="3.3965in"
   viewBox="0 0 685.6339 244.5483"
   id="svg4"
   sodipodi:docname="IDFC FIRST Bank.cdr"
   xmlns:inkscape="http://www.inkscape.org/namespaces/inkscape"
   xmlns:sodipodi="http://sodipodi.sourceforge.net/DTD/sodipodi-0.dtd"
   xmlns="http://www.w3.org/2000/svg"
   xmlns:svg="http://www.w3.org/2000/svg">
  <defs
     id="defs4" />
  <sodipodi:namedview
     id="namedview4"
     pagecolor="#ffffff"
     bordercolor="#000000"
     borderopacity="0.25"
     inkscape:showpageshadow="2"
     inkscape:pageopacity="0.0"
     inkscape:pagecheckerboard="0"
     inkscape:deskcolor="#d1d1d1"
     inkscape:document-units="in" />
  <g
     id="Layer1000">
    <path
       d="  M0.0000,244.5483 L685.6338,244.5483 L685.6338,0.0000 L0.0000,0.0000 L0.0000,244.5483 Z"
       style="fill-rule: evenodd; fill: #9d1d27; "
       id="path1" />
    <path
       d="  M51.3806,51.5674 L191.9515,51.5674 L191.9515,192.5126 L51.3806,192.5126 L51.3806,51.5674 L51.3806,51.5674 Z Z M203.8372,39.6817 L39.5885,39.6817 L39.5885,204.3051 L203.7436,204.3051 L203.7436,39.6817 L203.8372,39.6817 Z"
       style="fill-rule: evenodd; fill: #fefefe; "
       id="path2" />
    <path
       d="  M66.9163,94.5249 L176.4154,94.5249 L176.4154,67.1035 L66.9163,67.1035 L66.9163,94.5249 Z Z M66.9163,176.8832 L94.2444,176.8832 L94.2444,149.3682 L66.9163,149.3682 L66.9163,176.8832 Z Z M66.9163,135.7043 L135.2365,135.7043 L135.2365,108.1892 L66.9163,108.1888 L66.9163,135.7043 Z"
       style="fill-rule: evenodd; fill: #fefefe; "
       id="path3" />
    <path
       d="  M273.2801,76.4623 L273.2801,111.9325 L283.1071,111.9325 C293.8697,111.9325 296.3967,107.8146 296.3967,94.0571 C296.3967,79.3635 294.8059,76.4623 281.8904,76.4623 L273.2801,76.4623 Z Z M284.6047,67.1968 C301.5443,67.1968 307.6277,74.5904 307.6277,93.8698 C307.6277,112.4940 301.1701,121.1043 284.5110,121.1043 L262.1432,121.1043 L262.1432,67.1972 L284.6047,67.1968 L284.6047,67.1968 Z Z M240.6178,121.1043 L251.7547,121.1043 L251.7547,67.1972 L240.6178,67.1968 L240.6178,121.1043 Z Z M316.3312,67.1968 L354.1411,67.1968 L354.1411,76.4623 L327.3749,76.4623 L327.3749,89.0968 L350.7721,89.0968 L350.7721,98.3622 L327.3749,98.3622 L327.3749,121.1979 L316.2376,121.1979 L316.3312,67.1968 Z Z M405.9895,103.4158 C405.2407,113.9912 399.4383,122.4142 382.7796,122.4142 C366.5888,122.4142 358.3530,114.3654 358.3530,94.5246 C358.3530,75.0579 366.1209,66.0734 382.7796,66.0734 C395.9756,66.0734 404.1181,71.6889 405.8963,84.0424 L394.7590,84.0428 C393.4487,79.2698 391.9514,75.5262 382.7796,75.5262 C373.6078,75.5262 369.5836,81.0480 369.5836,95.4607 C369.5836,106.6912 372.5784,112.9619 382.9669,112.9619 C390.4542,112.9619 393.9169,110.6222 394.8526,103.5095 L405.9895,103.5095 L405.9895,103.4158 Z Z M435.5637,67.1968 L473.3736,67.1968 L473.3736,76.4623 L446.7006,76.4623 L446.7006,89.0968 L470.0982,89.0968 L470.0982,98.3622 L446.7006,98.3622 L446.7006,121.1979 L435.5637,121.1979 L435.5637,67.1968 Z Z M480.6736,121.1043 L491.8109,121.1043 L491.8109,67.1972 L480.6736,67.1968 L480.6736,121.1043 Z Z M513.3363,76.4623 L513.3363,90.6877 L523.3502,90.6877 C532.2411,90.6877 535.3296,89.7519 535.3296,83.0134 C535.3296,77.5853 533.4577,76.4623 524.0990,76.4623 L513.3363,76.4623 Z Z M502.1990,67.1968 L525.5962,67.1968 C536.8268,67.1968 546.5601,67.4777 546.5601,83.3877 C546.5601,93.9631 542.1613,97.8004 536.0780,99.2980 L550.1165,121.1979 L536.5462,121.1979 L523.3502,99.9531 L513.3363,99.9531 L513.3363,121.1979 L502.1990,121.1979 L502.1990,67.1968 L502.1990,67.1968 Z Z M564.0617,104.1646 C564.5295,109.7801 565.3720,112.7749 576.0410,112.7749 C581.6565,112.7749 585.7744,111.9325 585.7744,106.4110 C585.7744,103.1353 584.2767,101.2638 579.5037,100.0472 L566.4014,96.4908 C559.8502,94.7126 554.0478,91.6241 554.0478,81.7039 C554.0478,73.9360 557.6041,65.7936 574.2629,65.7936 C590.0795,65.7936 595.0394,73.1872 595.3204,82.8269 L584.2767,82.8262 C583.7152,78.3337 583.5279,75.3389 573.8883,75.3389 C568.2728,75.3389 565.3716,76.3682 565.3716,80.6734 C565.3716,84.6039 567.7113,85.7273 570.7998,86.5694 L582.7791,89.8452 C590.4533,91.9043 596.9113,94.8992 596.9113,105.6619 C596.9113,120.8234 583.9025,122.3206 575.8537,122.3206 C558.2589,122.3206 553.4859,115.3952 552.8307,104.1642 L564.0617,104.1646 Z Z M615.9097,76.6496 L599.7188,76.6496 L599.7188,67.1972 L643.2378,67.1968 L643.2378,76.6492 L627.1406,76.6496 L627.1406,121.1043 L616.0033,121.1043 L616.0033,76.6496 L615.9097,76.6496 Z Z M251.7547,178.3809 L251.7547,192.6063 L261.7690,192.6063 C271.8765,192.6063 274.1225,191.8574 274.1225,185.6809 C274.1225,179.2233 272.0634,178.3809 263.9213,178.3809 L251.7547,178.3809 Z Z M251.7547,157.1360 L251.7547,169.1154 L264.2023,169.1154 C270.8471,169.1154 272.5317,168.2729 272.5317,162.7515 C272.5317,158.2590 271.5023,157.1360 262.1432,157.1360 L251.7547,157.1360 Z Z M266.9162,147.8706 C277.4916,147.8706 283.2944,151.6142 283.2944,161.9090 C283.2944,170.2384 279.4571,172.0166 277.1174,172.9527 C283.7622,175.5733 285.3531,180.6269 285.3531,186.2424 C285.3531,195.1332 281.3289,201.7781 266.4479,201.7781 L240.6178,201.7781 L240.6178,147.7773 L266.9162,147.8706 Z Z M316.1439,183.5281 L308.8440,184.7448 C304.8197,185.3063 302.0118,186.1487 302.0118,190.3602 C302.0118,193.3551 303.5094,195.0396 308.1888,195.0396 C314.5527,195.0396 316.1439,191.5769 316.1439,186.7102 L316.1439,183.5281 Z Z M292.7467,174.1694 C293.3082,163.9682 299.1106,161.1606 309.7801,161.1606 C320.7300,161.1606 326.5324,164.0618 326.5324,172.7658 L326.5324,201.7785 L316.6118,201.7781 L316.6118,198.7832 C314.5527,200.8424 310.7158,202.8074 304.4451,202.8074 C294.9928,202.8074 291.6233,198.5959 291.6233,191.8574 C291.6233,183.0602 297.3324,179.6908 303.1348,178.8487 L316.2372,176.7896 L316.2376,174.3563 C316.2376,170.6126 314.3658,169.5833 309.4991,169.5833 C304.3519,169.5833 303.2285,170.7999 302.7606,174.1690 L292.7467,174.1694 L292.7467,174.1694 Z Z M361.1606,179.0360 C361.1606,172.9527 361.0669,169.7705 354.4221,169.7705 C346.9348,169.7705 346.1864,173.7011 346.1864,183.0602 L346.1864,201.8717 L335.7979,201.8717 L335.7979,162.1900 L345.7181,162.1900 L345.7181,167.3372 C348.5257,163.4999 351.6142,161.2539 358.9142,161.2539 C369.0217,161.2539 371.6423,165.6527 371.6423,177.6321 L371.6423,201.8717 L361.1606,201.8717 L361.1606,179.0360 L361.1606,179.0360 Z Z M381.6562,147.8706 L392.0447,147.8706 L392.0447,176.8832 L404.8665,162.1896 L417.6883,162.1900 L403.8371,177.2578 L418.2498,201.8717 L406.1768,201.8717 L396.5372,184.6515 L392.0447,189.3309 L392.0447,201.8717 L381.5630,201.8717 L381.6562,147.8706 Z"
       style="fill-rule: evenodd; fill: #fefefe; "
       id="path4" />
  </g>
</svg>
